<?xml version="1.0" encoding="utf-8"?>
<!-- Generator: Adobe Illustrator 22.1.0, SVG Export Plug-In . SVG Version: 6.00 Build 0)  -->
<svg version="1.1" id="Layer_1" xmlns="http://www.w3.org/2000/svg" xmlns:xlink="http://www.w3.org/1999/xlink" x="0px" y="0px"
	 viewBox="0 0 2000 850" style="enable-background:new 0 0 2000 850;" xml:space="preserve">
<style type="text/css">
	.st0{fill:#F6F9FC;}
</style>
<g>
	<path class="st0" d="M1333.3,714.9c-221.7,0-445,0-666.7,0s-445,0-555,0H0L111.7,741c110,26.1,333.3,78.4,555,83.6
		c221.7,5.2,445-36.6,666.7-47c221.7-10.4,445,10.5,555,20.9l111.7,10.4v-94h-111.7C1778.3,714.9,1555,714.9,1333.3,714.9z"/>
	<path class="st0" d="M1999.6,135.1l-111.2-26c-110-26.1-333.3-78.4-555-83.6s-445,36.6-666.7,47s-445-10.5-555-21L0,41v94v0.1
		v579.7h2000V135.1H1999.6z"/>
</g>
</svg>
