<svg xmlns="http://www.w3.org/2000/svg" width="139.3" height="40.8" viewBox="0 0 139.3 40.8"><title>logo</title><path d="M56.8,13.1a7.9,7.9,0,0,1-3.3,2.3l2.7,4.9H52.4l-2.5-4.5H46.8L46,20.3H42.3l3.1-16h6.4a7,7,0,0,1,4.6,1.3,4.8,4.8,0,0,1,1.2,1.6,4.5,4.5,0,0,1,.4,2A6.9,6.9,0,0,1,56.8,13.1ZM53.3,12a4.4,4.4,0,0,0,.8-1.1,5.9,5.9,0,0,0,.2-1.3,1.6,1.6,0,0,0-.2-1,1.3,1.3,0,0,0-.6-.7,2.9,2.9,0,0,0-2.2-.6H48.5l-1.1,5.5h3.1A4,4,0,0,0,53.3,12Z" transform="translate(-6 -1.7)"/><path d="M64.9,7.3l-.6,3.4h7.3L71,13.6H63.7L63,17.3h8.5l-.6,3H58.8l3.1-16H73.8l-.6,3Z" transform="translate(-6 -1.7)"/><path d="M83.4,12.2l4.3,8.1H83.8L81,14.9l-4.7,5.4H71.9L79.4,12,75.3,4.3h4l2.6,5.1,4.5-5.1h4.2Z" transform="translate(-6 -1.7)"/><path d="M41.2,24.6h5.6a8.5,8.5,0,0,1,3.5.8,6,6,0,0,1,2.2,2.3,7.7,7.7,0,0,1,.9,3.6,11.7,11.7,0,0,1-1.1,4.9,7.2,7.2,0,0,1-2.9,3.3A8.6,8.6,0,0,1,45,40.7H38.5Zm3.9,13a3.8,3.8,0,0,0,2.7-.8,5.2,5.2,0,0,0,1.8-2.1,8.7,8.7,0,0,0,.6-3.2A2.6,2.6,0,0,0,50,30a3.3,3.3,0,0,0-.7-1.3,3.9,3.9,0,0,0-1.4-.8,2.6,2.6,0,0,0-1.5-.2H43.8L42,37.6Z" transform="translate(-6 -1.7)"/><path d="M59.5,27.6,59,31.1h6.2L64.7,34H58.5l-.6,3.7h7.3l-.5,3H54.3L57,24.6H67.1l-.5,3Z" transform="translate(-6 -1.7)"/><path d="M68.8,40.5a7.2,7.2,0,0,1-2.4-1.4l1.3-2.8a7.4,7.4,0,0,0,2.1,1.3,9.1,9.1,0,0,0,2.3.3,3.9,3.9,0,0,0,2.1-.4l.5-.6a2.4,2.4,0,0,0,.2-.8,1.4,1.4,0,0,0-.2-.6,1,1,0,0,0-.4-.5l-1.9-.8-2.1-.9a4.4,4.4,0,0,1-1.5-1.2,4.8,4.8,0,0,1-.6-2.4,6,6,0,0,1,.8-2.8A5.1,5.1,0,0,1,71.2,25a8.7,8.7,0,0,1,3.2-.6,10.7,10.7,0,0,1,2.5.3,5.1,5.1,0,0,1,2.1,1l-1.2,2.9a2.9,2.9,0,0,0-1.6-.9,6.9,6.9,0,0,0-2-.3,3.3,3.3,0,0,0-2.1.5,1,1,0,0,0-.5.6,1.1,1.1,0,0,0-.2.8v.5l.3.4.8.6,1.4.5a10.2,10.2,0,0,1,2.1.8,3.3,3.3,0,0,1,1.4,1.2,4.3,4.3,0,0,1,.6,2.2,5.1,5.1,0,0,1-.8,2.9,4.5,4.5,0,0,1-2.1,1.8,7.8,7.8,0,0,1-3.3.7A9.9,9.9,0,0,1,68.8,40.5Z" transform="translate(-6 -1.7)"/><path d="M82,24.6h3.2L82.5,40.7H79.3Z" transform="translate(-6 -1.7)"/><path d="M96.1,32.4H99L97.8,39a8.2,8.2,0,0,1-2.4,1.5,8,8,0,0,1-2.7.4,6.2,6.2,0,0,1-3.5-.8,5.6,5.6,0,0,1-2.3-2.5,7.3,7.3,0,0,1-.8-3.6,11.6,11.6,0,0,1,1-4.9,7.9,7.9,0,0,1,3-3.5,8.4,8.4,0,0,1,7.7-.5,5.6,5.6,0,0,1,2.3,2l-2.3,2.2A2.8,2.8,0,0,0,96.3,28a3.2,3.2,0,0,0-1.9-.5,5.4,5.4,0,0,0-2.8.8,5.8,5.8,0,0,0-1.8,2.3,8.7,8.7,0,0,0-.6,3.2,4.5,4.5,0,0,0,1,2.9,2.6,2.6,0,0,0,1.3.8,4.5,4.5,0,0,0,1.6.3,4.3,4.3,0,0,0,2.2-.6Z" transform="translate(-6 -1.7)"/><path d="M115.4,24.6l-2.7,16.1h-2.5l-5-10.1-1.7,10.1h-3.1l2.7-16.1h2.6l5,10.1,1.6-10.1Z" transform="translate(-6 -1.7)"/><path d="M125.3,5.6l15.2,13.9a3.7,3.7,0,0,1,1.3,2.8,4.1,4.1,0,0,1-1.3,2.8L125.3,39" transform="translate(-6 -1.7)" style="fill:none;stroke:#4c64ac;stroke-linecap:round;stroke-miterlimit:10;stroke-width:7px"/><path d="M25.9,5.2,10.7,19.1a3.6,3.6,0,0,0-1.2,2.8,3.9,3.9,0,0,0,1.2,2.8L25.9,38.6" transform="translate(-6 -1.7)" style="fill:none;stroke:#4c64ac;stroke-linecap:round;stroke-miterlimit:10;stroke-width:7px"/></svg>