<?xml version="1.0" encoding="utf-8"?>
<!-- Generator: Adobe Illustrator 22.1.0, SVG Export Plug-In . SVG Version: 6.00 Build 0)  -->
<svg version="1.1" id="Layer_1" xmlns="http://www.w3.org/2000/svg" xmlns:xlink="http://www.w3.org/1999/xlink" x="0px" y="0px"
	 viewBox="0 0 1920 820" style="enable-background:new 0 0 1920 820;" xml:space="preserve">
<style type="text/css">
	.st0{fill:#f5f5f5}
</style>
<path class="st0" d="M1920,793.9l-107.2-10.4c-105.6-10.4-320-31.3-532.8-20.9c-212.8,10.4-427.2,52.2-640,47
	c-212.8-5.2-427.2-57.5-532.8-83.6L0,699.9h107.2c105.6,0,320,0,532.8,0s427.2,0,640,0s427.2,0,532.8,0H1920V793.9z"/>
<path class="st0" d="M0,120.1h1920v579.7H0L0,120.1z"/>
<path class="st0" d="M0,26.1l107.2,10.4C212.8,47,427.2,67.9,640,57.5c212.8-10.4,427.2-52.2,640-47s427.2,57.5,532.8,83.6
	l107.2,26.1h-107.2c-105.6,0-320,0-532.8,0s-427.2,0-640,0s-427.2,0-532.8,0H0V26.1z"/>
</svg>
