<svg xmlns="http://www.w3.org/2000/svg" viewBox="0 0 458 500"><title>hero</title><path d="M310.5,385.6,262.7,358c-3.5-2-3-5.5,1-7.8l31-17.9L355,367.2l-31,17.9C320,387.4,314,387.6,310.5,385.6Z" style="fill:#d6d8e5;opacity:0.4000000059604645;isolation:isolate"/><path d="M314.8,383.1,267,355.5c-3.4-2-3-5.5,1-7.8l31-17.9,60.3,34.8-31,17.9C324.3,384.9,318.3,385.1,314.8,383.1Z" style="fill:#b1b4c4"/><polygon points="359.3 364.7 359.3 362.9 356.5 364.5 359.3 364.7" style="fill:#b1b4c4"/><polygon points="264.7 352.2 264.7 350.4 267.5 351.5 264.7 352.2" style="fill:#b1b4c4"/><path d="M314.8,381.3,267,353.7c-3.4-2-3-5.5,1-7.8L299,328l60.3,34.8-31,17.9C324.3,383,318.3,383.3,314.8,381.3Z" style="fill:#d6d8e5"/><polygon points="299.1 328.1 291.7 303.4 352.6 338.3 359.3 362.9 299.1 328.1" style="fill:#9ea1af"/><path d="M357.5,363.9l1.8-1-2.6-2.1Z" style="fill:#9ea1af"/><polygon points="297.2 329 289.7 304.3 350.7 339.3 357.5 363.9 297.2 329" style="fill:#b1b4c4"/><path d="M452,405.6,216,269.4c-3.3-1.9-6-7-6-11.5V75.3c0-4.4,2.7-6.4,6-4.5L452,207.1c3.3,1.9,6,7,6,11.4V401.1C458,405.5,455.3,407.5,452,405.6Z" style="fill:#b1b4c4"/><polygon points="453.2 407.5 455.8 406 454.7 398.2 453.2 407.5" style="fill:#b1b4c4"/><path d="M209.6,71.9l2.6-1.5,3.7,2.1-4,.6Z" style="fill:#b1b4c4"/><path d="M449.8,406.9l-236-136.3c-3.3-1.9-6-7-6-11.5V76.6c0-4.4,2.7-6.4,6-4.5l236,136.3c3.3,1.9,6,7,6,11.4V402.4C455.8,406.7,453.1,408.8,449.8,406.9Z" style="fill:#e4e7f2"/><path d="M449.4,407.1l-236-136.3c-3.3-1.9-6-7-6-11.5V76.8c0-4.4,2.7-6.4,6-4.5l236,136.3c3.3,1.9,6,7,6,11.4V402.6C455.4,407,452.7,409,449.4,407.1Z" style="fill:#d6d8e5"/><path d="M452.1,396,210.4,256.4V77.5c0-1.8,1.3-2.6,2.9-1.7l236,136.3a6.4,6.4,0,0,1,2.9,5Z" style="fill:#fff"/><path d="M437.2,240.5,222.9,116.8a5.8,5.8,0,0,1-2.4-4.7V96.7c0-1.8,1.1-2.6,2.4-1.8L437.2,218.6a5.8,5.8,0,0,1,2.4,4.7v15.5C439.6,240.5,438.5,241.3,437.2,240.5Z" style="fill:#e9eaf2"/><path d="M426,281.9l-50.4-29.1a5.8,5.8,0,0,1-2.4-4.7V215.6c0-1.8,1.1-2.6,2.4-1.8L426,242.9a5.8,5.8,0,0,1,2.4,4.7v32.5C428.4,281.9,427.3,282.7,426,281.9Z" style="fill:#e9eaf2"/><path d="M359.6,292.5l-126.4-73a2.7,2.7,0,0,1-1.2-2.3v-5.6c0-.9.5-1.3,1.2-.9l126.4,73a2.7,2.7,0,0,1,1.2,2.3v5.6C360.8,292.4,360.3,292.9,359.6,292.5Z" style="fill:#e9eaf2"/><path d="M347.2,298.5,233.6,233a2.7,2.7,0,0,1-1.2-2.3v-2.8c0-.9.6-1.3,1.2-.9l113.6,65.6a2.7,2.7,0,0,1,1.2,2.3v2.8C348.4,298.5,347.8,298.9,347.2,298.5Z" style="fill:#e9eaf2"/><path d="M347.2,309.1,233.6,243.5a2.7,2.7,0,0,1-1.2-2.3v-2.8c0-.9.6-1.3,1.2-.9L347.2,303a2.7,2.7,0,0,1,1.2,2.3v2.8C348.4,309.1,347.8,309.5,347.2,309.1Z" style="fill:#e9eaf2"/><path d="M318.1,302.9l-84.5-48.8a2.7,2.7,0,0,1-1.2-2.3V249c0-.9.6-1.3,1.2-.9l84.5,48.8a2.9,2.9,0,0,1,1.2,2.3V302C319.4,302.9,318.8,303.3,318.1,302.9Z" style="fill:#e9eaf2"/><path d="M427.2,295.4l-52.8-30.5a2.7,2.7,0,0,1-1.2-2.3v-2.8c0-.9.5-1.3,1.2-.9l52.8,30.5a2.7,2.7,0,0,1,1.2,2.3v2.8C428.4,295.4,427.9,295.8,427.2,295.4Z" style="fill:#e9eaf2"/><path d="M427.2,306l-52.8-30.5a2.7,2.7,0,0,1-1.2-2.3v-2.8c0-.9.5-1.3,1.2-.9L427.2,300a2.7,2.7,0,0,1,1.2,2.3v2.8C428.4,306,427.9,306.4,427.2,306Z" style="fill:#e9eaf2"/><path d="M413.4,308.6l-39-22.5a2.7,2.7,0,0,1-1.2-2.3V281c0-.9.5-1.3,1.2-.9l39,22.5a2.7,2.7,0,0,1,1.2,2.3v2.8C414.6,308.5,414,309,413.4,308.6Z" style="fill:#e9eaf2"/><path d="M426,363.3l-50.4-29.1a5.8,5.8,0,0,1-2.4-4.7V297c0-1.8,1.1-2.6,2.4-1.8L426,324.3a5.8,5.8,0,0,1,2.4,4.7v32.5C428.4,363.3,427.3,364.1,426,363.3Z" style="fill:#e9eaf2"/><path d="M427.2,376.8l-52.8-30.5a2.7,2.7,0,0,1-1.2-2.3v-2.8c0-.9.5-1.3,1.2-.9l52.8,30.5a2.9,2.9,0,0,1,1.2,2.3v2.8C428.4,376.8,427.9,377.2,427.2,376.8Z" style="fill:#e9eaf2"/><ellipse cx="230.3" cy="110" rx="3.8" ry="6.6" transform="translate(-24.1 129.9) rotate(-30)" style="fill:#dadce5"/><path d="M341.7,176.4l-18.5-10.7a1.4,1.4,0,0,1-.6-1.2V162c0-.4.3-.7.6-.5l18.5,10.7a1.4,1.4,0,0,1,.6,1.2v2.5C342.3,176.3,342,176.6,341.7,176.4Z" style="fill:#dadce5"/><path d="M371.7,193.7,353.1,183a1.4,1.4,0,0,1-.6-1.2v-2.5c0-.4.3-.7.6-.5l18.5,10.7a1.4,1.4,0,0,1,.6,1.2v2.5C372.3,193.7,372,193.9,371.7,193.7Z" style="fill:#dadce5"/><path d="M401.2,210.7,382.7,200a1.4,1.4,0,0,1-.6-1.2v-2.5a.5.5,0,0,1,.6-.5l18.5,10.7a1.4,1.4,0,0,1,.6,1.2v2.5C401.8,210.7,401.5,210.9,401.2,210.7Z" style="fill:#dadce5"/><path d="M431.2,228l-18.5-10.7a1.4,1.4,0,0,1-.6-1.2v-2.5a.5.5,0,0,1,.6-.5l18.5,10.8a1.4,1.4,0,0,1,.6,1.2v2.5C431.8,228,431.5,228.2,431.2,228Z" style="fill:#dadce5"/><polygon points="390.3 246.9 386.7 237.8 380.3 247 387.4 251 393.2 254.4 406.1 261.9 396.8 237.7 390.3 246.9" style="fill:#dadce5"/><ellipse cx="418" cy="248.3" rx="3.5" ry="6" transform="matrix(0.87, -0.5, 0.5, 0.87, -68.14, 241.31)" style="fill:#dadce5"/><polygon points="390.6 329.5 387.1 320.4 380.7 329.6 387.7 333.6 393.5 337 406.5 344.5 397.1 320.3 390.6 329.5" style="fill:#dadce5"/><ellipse cx="416.7" cy="329.9" rx="3.5" ry="6" transform="translate(-109.1 252.5) rotate(-30)" style="fill:#dadce5"/><polygon points="271.7 205.3 267 224.1 267 208 271.7 205.3" style="fill:#232733"/><polygon points="217.2 173.6 212.5 192.3 212.5 176.3 217.2 173.6" style="fill:#232733"/><path d="M294.1,289.8,182.7,225.5a5.4,5.4,0,0,1-2.2-4.2v-57c0-1.6,1-2.4,2.2-1.6L294.1,227a5.1,5.1,0,0,1,2.2,4.2v57.1C296.3,289.8,295.4,290.5,294.1,289.8Z" style="fill:#e9eaf2"/><polygon points="213.7 223 207.7 207.4 196.7 223.1 208.8 230.1 218.7 235.8 240.8 248.6 224.8 207.3 213.7 223" style="fill:#9cc2f4"/><ellipse cx="270.8" cy="230.9" rx="5.9" ry="10.2" transform="translate(-79.2 166.3) rotate(-30)" style="fill:#9cc2f4"/><polygon points="265 201.4 264.9 180.1 258.9 175.5 258.9 201.4 252.1 205.3 261.9 211 271.7 205.3 265 201.4" style="fill:#353c4c"/><polygon points="261.9 211 267 224.1 267 208.9 267 208 261.9 211" style="fill:#232733"/><polygon points="252.1 205.3 256.5 217.9 267 224.1 261.9 211 252.1 205.3" style="fill:#2b303f"/><polygon points="210.4 169.7 210.4 143.7 204.4 143.7 204.4 169.7 197.6 173.6 207.4 179.2 217.2 173.6 210.4 169.7" style="fill:#353c4c"/><polygon points="207.4 179.2 212.5 192.3 212.5 177.2 212.5 176.3 207.4 179.2" style="fill:#232733"/><polygon points="197.6 173.6 202 186.1 212.5 192.3 207.4 179.2 197.6 173.6" style="fill:#2b303f"/><polygon points="143.8 290.7 83.4 255.7 10.7 297.7 75.8 335.5 148.5 293.5 148.5 288 143.8 290.7" style="fill:#d6d8e5;opacity:0.4000000059604645;isolation:isolate"/><polygon points="151.4 286 83.4 246.8 15.4 286 10.7 283.3 10.7 288.7 83.4 330.7 156.1 288.7 156.1 283.3 151.4 286" style="fill:#b1b4c4"/><polygon points="83.4 325.3 10.7 283.3 83.4 241.3 156.1 283.3 83.4 325.3" style="fill:#e7e9f2"/><polygon points="83.2 267.8 87.9 265 87.9 62.2 83.2 64.9 83.2 267.8" style="fill:#b1b4c4"/><polygon points="83.6 147.7 116.8 200.3 121.5 198.3 87.9 145.2 83.6 147.7" style="fill:#b1b4c4"/><polygon points="83.4 157 116.6 209.9 116.6 200 83.4 147.4 83.4 157" style="fill:#d6d8e5"/><polygon points="78.6 265 83.4 267.8 83.4 64.9 78.6 62.2 78.6 265" style="fill:#d6d8e5"/><polygon points="116.6 286.9 121.3 289.7 121.3 86.9 116.6 84.1 116.6 286.9" style="fill:#d6d8e5"/><polygon points="121.2 289.7 125.9 286.9 125.9 84.1 121.2 86.9 121.2 289.7" style="fill:#b1b4c4"/><polygon points="83.4 253.1 116.6 213.3 116.6 203.8 83.4 243.6 83.4 253.1" style="fill:#d6d8e5"/><polygon points="83.4 253.1 87.9 250.6 116.6 216.1 116.6 212.6 83.4 253.1" style="fill:#b1b4c4"/><polygon points="83.4 147.7 116.6 107.9 116.6 98.4 83.4 138.2 83.4 147.7" style="fill:#d6d8e5"/><polygon points="83.4 147.7 87.9 145.2 116.6 110.6 116.6 107.2 83.4 147.7" style="fill:#b1b4c4"/><polygon points="45.5 289.6 50.2 286.9 50.2 84.1 45.5 86.8 45.5 289.6" style="fill:#b1b4c4"/><polygon points="45.9 169.6 79.1 222.1 83.8 220.2 50.2 167.1 45.9 169.6" style="fill:#b1b4c4"/><polygon points="45.7 178.9 78.9 231.8 78.9 221.9 45.7 169.2 45.7 178.9" style="fill:#d6d8e5"/><polygon points="40.9 286.9 45.7 289.6 45.7 86.8 40.9 84.1 40.9 286.9" style="fill:#d6d8e5"/><polygon points="78.9 308.8 83.6 311.6 83.6 108.8 78.9 106 78.9 308.8" style="fill:#d6d8e5"/><polygon points="83.5 311.6 88.2 308.8 88.2 106 83.5 108.8 83.5 311.6" style="fill:#b1b4c4"/><polygon points="45.7 275 78.9 235.2 78.9 225.7 45.7 265.5 45.7 275" style="fill:#d6d8e5"/><polygon points="45.7 275 50.2 272.5 78.9 238 78.9 234.5 45.7 275" style="fill:#b1b4c4"/><polygon points="45.7 169.6 78.9 129.8 78.9 120.3 45.7 160.1 45.7 169.6" style="fill:#d6d8e5"/><polygon points="45.7 169.6 50.2 167.1 78.9 132.5 78.9 129.1 45.7 169.6" style="fill:#b1b4c4"/><polygon points="83.6 119 34.6 90.7 83.6 62.4 132.7 90.7 83.6 119" style="fill:#f7dc6b"/><polygon points="80 37.9 21.9 71.5 5.2 61.9 63.3 28.3 80 37.9" style="fill:#353c4c"/><polygon points="5.2 75.3 5.2 61.9 21.9 71.5 21.9 84.9 5.2 75.3" style="fill:#2b303f"/><polyline points="21.9 84.9 80 51.4 80 37.9 21.9 71.5 21.9 83.6" style="fill:#232733"/><polygon points="80 22.8 21.9 56.4 5.2 46.8 63.3 13.2 80 22.8" style="fill:#353c4c"/><polygon points="5.2 60.2 5.2 46.8 21.9 56.4 21.9 69.8 5.2 60.2" style="fill:#2b303f"/><polyline points="21.9 69.8 80 36.3 80 22.8 21.9 56.4 21.9 68.5" style="fill:#232733"/><polygon points="36 64.6 0 43.9 0 36.3 36 56.9 36 64.6" style="fill:#d6d8e5"/><polygon points="88.2 86.8 0 36.3 6.5 32.6 94.7 83.1 88.2 86.8" style="fill:#e7e9f2"/><polygon points="75.7 52.6 30.4 26.4 30.4 18.9 75.7 43.2 75.7 52.6" style="fill:#d6d8e5"/><polygon points="110.1 64.1 30.4 18.9 37 15.1 116.6 60.3 110.1 64.1" style="fill:#e7e9f2"/><polygon points="54.5 32.8 54.5 40.3 57.7 62 62.3 64.9 54.5 32.8" style="fill:#d6d8e5"/><polygon points="68.2 68.1 62.2 37.2 54.5 32.8 59.2 63.3 68.2 68.1" style="fill:#e7e9f2"/><polygon points="54.5 40.3 30.8 46.6 18.5 39.5 53.5 32.2 54.5 32.8 54.5 40.3" style="fill:#b1b4c4"/><polygon points="54.5 32.8 21.4 41.2 14.3 37.1 47.7 28.6 54.5 32.8" style="fill:#e7e9f2"/><polygon points="83.6 56.6 34.6 28.3 83.6 0 132.7 28.3 83.6 56.6" style="fill:#e7e9f2"/><polygon points="34.6 115.7 34.6 28.3 83.6 56.6 83.6 144 34.6 115.7" style="fill:#d6d8e5"/><polygon points="132.7 28.3 132.7 115.7 83.6 144 83.6 56.6 132.7 28.3" style="fill:#b1b4c4"/><polygon points="83.6 87.1 55.5 70.8 46.4 42 83.6 63.5 83.6 87.1" style="fill:#9cc2f4"/><polygon points="132.7 35.2 132.7 58.8 83.6 87.1 83.6 63.5 132.7 35.2" style="fill:#9cc2f4"/><polygon points="302.3 219.3 90.1 96.8 90.1 89.2 302.3 211.7 302.3 219.3" style="fill:#d6d8e5"/><polygon points="302.3 211.7 90.1 89.3 96.7 85.5 308.8 208 302.3 211.7" style="fill:#e7e9f2"/><polygon points="332.7 201.8 120.5 79.3 120.5 71.8 332.7 194.3 332.7 201.8" style="fill:#d6d8e5"/><polygon points="332.7 194.3 120.5 71.8 127.1 68 339.2 190.5 332.7 194.3" style="fill:#e7e9f2"/><polygon points="339.2 198.1 302.3 219.3 302.3 211.7 339.2 190.5 339.2 198.1" style="fill:#b1b4c4"/><polygon points="339.2 190.5 302.3 211.7 296.8 208.5 333.7 187.4 339.2 190.5" style="fill:#e7e9f2"/><polygon points="306.1 186.5 282.3 192.7 270.1 185.7 305 178.3 306.1 178.9 306.1 186.5" style="fill:#b1b4c4"/><polygon points="306.1 178.9 273 187.3 265.9 183.2 299.2 174.7 306.1 178.9" style="fill:#e7e9f2"/><polygon points="252.4 148 252.4 155.5 255.5 177.2 260.1 180.1 252.4 148" style="fill:#d6d8e5"/><polygon points="266 183.3 260.1 152.4 252.4 148 257.1 178.4 266 183.3" style="fill:#e7e9f2"/><polygon points="252.4 155.5 228.6 161.8 216.4 154.7 251.4 147.3 252.4 148 252.4 155.5" style="fill:#b1b4c4"/><polygon points="252.4 148 219.3 156.4 212.2 152.3 245.6 143.7 252.4 148" style="fill:#e7e9f2"/><polygon points="198.5 116.8 198.5 124.4 201.6 146.1 206.2 148.9 198.5 116.8" style="fill:#d6d8e5"/><polygon points="212.2 152.2 206.2 121.3 198.5 116.8 203.2 147.3 212.2 152.2" style="fill:#e7e9f2"/><polygon points="198.5 124.4 174.8 130.6 162.5 123.6 197.5 116.2 198.5 116.8 198.5 124.4" style="fill:#b1b4c4"/><polygon points="198.5 116.8 165.4 125.3 158.3 121.1 191.7 112.6 198.5 116.8" style="fill:#e7e9f2"/><polygon points="144.7 85.7 144.7 93.3 147.8 115 152.4 117.8 144.7 85.7" style="fill:#d6d8e5"/><polygon points="158.3 121.1 152.3 90.2 144.7 85.7 149.3 116.2 158.3 121.1" style="fill:#e7e9f2"/><polygon points="144.7 93.3 120.9 99.5 108.7 92.5 143.6 85.1 144.7 85.7 144.7 93.3" style="fill:#b1b4c4"/><polygon points="144.7 85.7 111.5 94.1 104.4 90 137.8 81.5 144.7 85.7" style="fill:#e7e9f2"/><polygon points="94.2 500 66.3 484.1 108 460.3 135.8 476.2 94.2 500" style="fill:#d6d8e5;opacity:0.4000000059604645;isolation:isolate"/><polygon points="94.8 467.9 71.7 454.6 94.8 441.3 117.8 454.6 94.8 467.9" style="fill:#d6d8e5"/><polygon points="94.8 494.5 71.7 481.2 71.7 454.6 94.8 467.9 94.8 494.5" style="fill:#b1b6c4"/><polygon points="117.8 481.2 94.8 494.5 94.8 467.9 117.8 454.6 117.8 481.2" style="fill:#c4c7d6"/><path d="M125.7,472.8a7.6,7.6,0,0,0,5.9-.7c1.4,0,9.2-3.3,10.3-.5s-2.4,4.7-4.2,5.1c-3.9,1-6.8,2.9-8.4,3.2s-2.7.4-3.6-.5S124.6,474.3,125.7,472.8Z" style="fill:#9cc2f4"/><path d="M129.3,479.3c1.6-.3,4.5-2.3,8.4-3.2,1.5-.4,4.1-2,4.4-4,.4,2.3-2.7,4.3-4.4,4.6-3.9,1-6.8,2.9-8.4,3.2s-2.7.4-3.6-.5a4.1,4.1,0,0,1-.5-.9A4.6,4.6,0,0,0,129.3,479.3Z"/><path d="M111.7,465.4a7.6,7.6,0,0,0,5.9-.7c1.4,0,9.2-3.3,10.2-.5s-2.4,4.7-4.2,5.1c-3.9,1-6.8,2.9-8.4,3.2s-2.7.4-3.6-.5S110.6,466.9,111.7,465.4Z" style="fill:#9cc2f4"/><path d="M115.3,471.9c1.6-.3,4.5-2.3,8.4-3.2,1.5-.4,4.1-2,4.4-4,.4,2.3-2.7,4.3-4.4,4.6-3.9,1-6.8,2.9-8.4,3.2s-2.7.4-3.6-.5a4.1,4.1,0,0,1-.5-.9A4.6,4.6,0,0,0,115.3,471.9Z"/><path d="M89.9,455.7c6,2.7,11.8,3.1,16.4.6l4.8-2.8.6,12.2s3.7,2.8,6.6.3l1.2-17.3,5.1-2.9a6.8,6.8,0,0,0-.2,1.4c0,1.6,1.2,25.9,1.2,25.9s3.7,2.2,6.6-.3c0,0,1.9-28.1,2.4-32.6s-5.1-7.5-8.7-6.2l-5.4,2c.1-1.4.2-2.5.3-3.1.5-5.1-5.1-7.5-8.7-6.3L87,436a45.2,45.2,0,0,0,.8,6.3l-8.6-.7C78.6,449.6,83.9,453.1,89.9,455.7Zm15.1-14,5.8-3.3a5,5,0,0,0-.2,1.2Z" style="fill:#9cc2f4"/><path d="M74.4,416.9s.7,10.7,2.1,12.3,6.2,2.6,6.2,2.6l3.7,6s-3.4-19.1-4.1-19.6S74.4,416.9,74.4,416.9Z" style="fill:#ffcea9"/><path d="M81.5,405a4,4,0,0,0-5.1,1.5c-1.3,2.2-2.8,9.9-2.9,11.2s1.9,2.6,4.7,2.2Z" style="fill:#ededed"/><path d="M82.8,405.1c1.9.1,3.2.6,3.5,0a28.9,28.9,0,0,0,.4-2.9l-.4-1.1c-2.3-1.4-3.1-4-3.4-6.9-.5-5,2.2-9.4,7.2-9.9s8.2,2.8,9.1,7.4c.5,2.3,1.5,6.5.2,10.2-.8,2.1-1.7,3.7-2.7,4a13.3,13.3,0,0,1-2.8-.3h0s-.3,1.4-.4,2.3-.1,1.4,1.7,2.5-2.7,3.4-5.6,3.1-6.2-2-7.1-3.9S81.5,405,82.8,405.1Z" style="fill:#ffcea9"/><path d="M129.7,437.9h0a1.6,1.6,0,0,1-.8,1.3l-14.1,8.2a1.4,1.4,0,0,1-1.5,0L93.5,436a1.6,1.6,0,0,1-.8-1.3h0Z" style="fill:#e5e5e5"/><path d="M129,439.2l-14.1,8.2-.8.2v-9.7h15.6A1.2,1.2,0,0,1,129,439.2Z" style="fill:#e5e5e5"/><path d="M114.6,446.6a1.1,1.1,0,0,1-1.1,0L93,434.8c-.3-.1-.3-.4,0-.5l15.2-8.8L129.8,438Z" style="fill:#f4f4f4"/><polygon points="101.4 437.9 101.5 438 108.1 441.8 111.8 439.7 111.9 439.6 105.2 435.8 101.4 437.9" style="fill:#bfbfbf"/><polygon points="101.5 438 108.1 441.8 111.8 439.7 105.2 435.9 101.5 438" style="fill:#e5e5e5"/><path d="M124.1,438.5l1,.5h.3l.9-.5c.1,0,.1-.1,0-.2l-1-.5H125l-.9.5Z" style="fill:#9cc2f4"/><path d="M122.8,437.8l1,.5h.3l.9-.5c.1,0,.1-.1,0-.2l-1-.5h-.3l-.9.5C122.7,437.6,122.7,437.7,122.8,437.8Z" style="fill:#9cc2f4"/><path d="M121.4,437l1,.5h.3l.9-.5c.1-.1.1-.1,0-.2l-.9-.5h-.3l-.9.5C121.4,436.9,121.4,436.9,121.4,437Z" style="fill:#9cc2f4"/><path d="M120.1,436.2l1,.5h.3l.9-.5c.1,0,.1-.1,0-.2l-1-.5H121l-.9.5C120,436.1,120,436.1,120.1,436.2Z" style="fill:#9cc2f4"/><path d="M118.8,435.4l1,.5h.3l.9-.5c.1,0,.1-.1,0-.2l-1-.5h-.3l-.9.5C118.7,435.3,118.7,435.4,118.8,435.4Z" style="fill:#9cc2f4"/><path d="M117.4,434.6l1,.5h.3l.9-.5c.1,0,.1-.1,0-.2l-1-.5h-.3l-.9.5C117.3,434.5,117.3,434.6,117.4,434.6Z" style="fill:#9cc2f4"/><path d="M116.1,433.9l1,.5h.3l.9-.5c.1,0,.1-.1,0-.2l-.9-.5h-.3l-.9.5C116,433.7,116,433.8,116.1,433.9Z" style="fill:#9cc2f4"/><path d="M114.7,433.1l1,.5h.3l.9-.5c.1-.1.1-.1,0-.2l-1-.5h-.3l-.9.5C114.6,433,114.6,433,114.7,433.1Z" style="fill:#9cc2f4"/><path d="M113.4,432.3l1,.5h.3l.9-.5c.1,0,.1-.1,0-.2l-1-.5h-.3l-.9.5C113.3,432.2,113.3,432.3,113.4,432.3Z" style="fill:#9cc2f4"/><path d="M112,431.5l1,.5h.3l.9-.5c.1,0,.1-.1,0-.2l-1-.5h-.3l-.9.5C112,431.4,111.9,431.5,112,431.5Z" style="fill:#9cc2f4"/><path d="M110.7,430.8l1,.5h.3l.9-.5c.1,0,.1-.1,0-.2l-.9-.5h-.3l-.9.5C110.6,430.6,110.6,430.7,110.7,430.8Z" style="fill:#9cc2f4"/><path d="M109.3,430l1,.5h.3l.9-.5c.1,0,.1-.1,0-.2l-1-.5h-.3l-.9.5C109.3,429.9,109.2,429.9,109.3,430Z" style="fill:#9cc2f4"/><path d="M108,429.2l1,.5h.3l.9-.5c.1-.1.1-.1,0-.2l-1-.5h-.3l-.9.5C107.9,429.1,107.9,429.1,108,429.2Z" style="fill:#9cc2f4"/><path d="M106,428l1.6.9h.3l.9-.5c.1,0,.1-.1,0-.2l-1.6-.9h-.3l-.9.5C105.9,427.9,105.9,428,106,428Z" style="fill:#9cc2f4"/><path d="M120.8,438.1l1,.5h.3l.9-.5c.1,0,.1-.1,0-.2l-1-.5h-.3l-.9.5Z" style="fill:#9cc2f4"/><path d="M119.5,437.4l1,.5h.3l.9-.5c.1,0,.1-.1,0-.2l-1-.5h-.3l-.9.5C119.4,437.2,119.4,437.3,119.5,437.4Z" style="fill:#9cc2f4"/><path d="M118.1,436.6l1,.5h.3l.9-.5c.1,0,.1-.1,0-.2l-1-.5H119l-.9.5Z" style="fill:#9cc2f4"/><path d="M116.8,435.8l.9.5h.3l.9-.5c.1,0,.1-.1,0-.2l-1-.5h-.3l-.9.5C116.7,435.7,116.7,435.8,116.8,435.8Z" style="fill:#9cc2f4"/><path d="M115.4,435l1,.5h.3l.9-.5c.1,0,.1-.1,0-.2l-1-.5h-.3l-.9.5Z" style="fill:#9cc2f4"/><path d="M114.1,434.2l1,.5h.3l.9-.5c.1,0,.1-.1,0-.2l-1-.5H115l-.9.5C114,434.1,114,434.2,114.1,434.2Z" style="fill:#9cc2f4"/><path d="M112.8,433.5l1,.5h.3l.9-.5c.1,0,.1-.1,0-.2l-1-.5h-.3l-.9.5C112.7,433.3,112.7,433.4,112.8,433.5Z" style="fill:#9cc2f4"/><path d="M111.4,432.7l.9.5h.3l.9-.5c.1,0,.1-.1,0-.2l-1-.5h-.3l-.9.5C111.3,432.6,111.3,432.6,111.4,432.7Z" style="fill:#9cc2f4"/><path d="M110.1,431.9l1,.5h.3l.9-.5c.1,0,.1-.1,0-.2l-.9-.5h-.3l-.9.5C110,431.8,110,431.9,110.1,431.9Z" style="fill:#9cc2f4"/><path d="M108.7,431.1l1,.5h.3l.9-.5c.1,0,.1-.1,0-.2l-1-.5h-.3l-.9.5C108.6,431,108.6,431.1,108.7,431.1Z" style="fill:#9cc2f4"/><path d="M107.3,430.3l1,.5h.3l.9-.5c.1-.1.1-.1,0-.2l-1-.5h-.3l-.9.5Z" style="fill:#9cc2f4"/><path d="M106,429.6l1,.5h.3l.9-.5c.1-.1.1-.1,0-.2l-1-.5h-.3l-.9.5C105.9,429.4,105.9,429.5,106,429.6Z" style="fill:#9cc2f4"/><path d="M122.2,438.9l1.6.9h.3l.9-.5c.1-.1.1-.1,0-.2l-1.6-.9h-.3l-.9.5C122.1,438.8,122.1,438.9,122.2,438.9Z" style="fill:#9cc2f4"/><path d="M105.9,428.1l1,.5h.1a.1.1,0,0,1-.1.1l-1,.6h-.7l-1,.6h-.3l-.6-.4c-.1,0-.1-.1,0-.2l1-.5h.4l.8-.5Z" style="fill:#9cc2f4"/><path d="M118.9,441.5l1,.5h.3l.9-.5c.1-.1.1-.1,0-.2l-.9-.5h-.3l-.9.5C118.8,441.4,118.8,441.5,118.9,441.5Z" style="fill:#9cc2f4"/><path d="M117.6,440.8l1,.5h.3l.9-.5c.1,0,.1-.1,0-.2l-1-.5h-.3l-.9.5C117.5,440.6,117.5,440.7,117.6,440.8Z" style="fill:#9cc2f4"/><path d="M116.2,440l1,.5h.3l.9-.5c.1,0,.1-.1,0-.2l-1-.5h-.3l-.9.5Z" style="fill:#9cc2f4"/><path d="M104.8,433.4l1,.5h.3l.9-.5c.1,0,.1-.1,0-.2l-1-.5h-.3l-.9.5C104.7,433.3,104.7,433.3,104.8,433.4Z" style="fill:#9cc2f4"/><path d="M103.4,432.6l1,.5h.3l.9-.5c.1,0,.1-.1,0-.2l-1-.5h-.3l-.9.5Z" style="fill:#9cc2f4"/><path d="M102.1,431.8l1,.5h.3l.9-.5c.1-.1.1-.1,0-.2l-1-.5H103l-.9.5C102,431.7,102,431.8,102.1,431.8Z" style="fill:#9cc2f4"/><path d="M100.8,431.1l1,.5h.3l.9-.5c.1,0,.1-.1,0-.2l-1-.5h-.3l-.9.5C100.7,430.9,100.7,431,100.8,431.1Z" style="fill:#9cc2f4"/><path d="M114.5,439l1.3.7h.3l.9-.5c.1,0,.1-.1,0-.2l-1.3-.8h-.3l-.9.5Z" style="fill:#9cc2f4"/><path d="M106.1,434.2l1.3.8h.3l.9-.5c.1,0,.1-.1,0-.2l-1.3-.8H107l-.9.5Z" style="fill:#9cc2f4"/><path d="M107.8,435.1l6.3,3.6h.3l.9-.5c.1,0,.1-.1,0-.2l-6.3-3.7h-.3l-.9.5C107.8,435,107.7,435.1,107.8,435.1Z" style="fill:#9cc2f4"/><path d="M119.2,438.7l1,.5h.3l.9-.5c.1,0,.1-.1,0-.2l-.9-.5h-.3l-.9.5C119.1,438.5,119.1,438.6,119.2,438.7Z" style="fill:#9cc2f4"/><path d="M117.8,437.9l1,.5h.3l.9-.5c.1,0,.1-.1,0-.2l-1-.5h-.3l-.9.5C117.8,437.8,117.7,437.9,117.8,437.9Z" style="fill:#9cc2f4"/><path d="M116.5,437.1l1,.5h.3l.9-.5c.1,0,.1-.1,0-.2l-1-.5h-.3l-.9.5C116.4,437,116.4,437.1,116.5,437.1Z" style="fill:#9cc2f4"/><path d="M115.1,436.3l1,.5h.3l.9-.5c.1,0,.1-.1,0-.2l-1-.5H116l-.9.5Z" style="fill:#9cc2f4"/><path d="M113.8,435.6l1,.5h.3l.9-.5c.1-.1.1-.1,0-.2l-1-.5h-.3l-.9.5C113.7,435.4,113.7,435.5,113.8,435.6Z" style="fill:#9cc2f4"/><path d="M112.4,434.8l1,.5h.3l.9-.5c.1,0,.1-.1,0-.2l-1-.5h-.3l-.9.5Z" style="fill:#9cc2f4"/><path d="M111.1,434l1,.5h.3l.9-.5c.1,0,.1-.1,0-.2l-1-.5H112l-.9.5C111,433.9,111,434,111.1,434Z" style="fill:#9cc2f4"/><path d="M109.8,433.2l1,.5h.3l.9-.5c.1,0,.1-.1,0-.2l-1-.5h-.3l-.9.5C109.7,433.1,109.7,433.2,109.8,433.2Z" style="fill:#9cc2f4"/><path d="M108.4,432.5l.9.5h.3l.9-.5c.1,0,.1-.1,0-.2l-1-.5h-.3l-.9.5Z" style="fill:#9cc2f4"/><path d="M107.1,431.7l1,.5h.3l.9-.5c.1,0,.1-.1,0-.2l-.9-.5h-.3l-.9.5C107,431.5,107,431.6,107.1,431.7Z" style="fill:#9cc2f4"/><path d="M105.7,430.9l1,.5h.3l.9-.5c.1,0,.1-.1,0-.2l-1-.5h-.3l-.9.5C105.6,430.8,105.6,430.9,105.7,430.9Z" style="fill:#9cc2f4"/><path d="M104.4,430.1l1,.5h.3l.9-.5c.1-.1.1-.1,0-.2l-1-.5h-.3l-.9.5C104.3,430,104.3,430.1,104.4,430.1Z" style="fill:#9cc2f4"/><path d="M120.5,439.5l2,1.1h.3l.9-.5c.1,0,.1-.1,0-.2l-2-1.1h-.3l-.9.5C120.4,439.3,120.4,439.4,120.5,439.5Z" style="fill:#9cc2f4"/><path d="M118.5,439.8l1,.5h.3l.9-.5c.1,0,.1-.1,0-.2l-.9-.5h-.3l-.9.5C118.5,439.7,118.4,439.8,118.5,439.8Z" style="fill:#9cc2f4"/><path d="M117.2,439l1,.5h.3l.9-.5c.1,0,.1-.1,0-.2l-1-.5h-.3l-.9.5C117.1,438.9,117.1,439,117.2,439Z" style="fill:#9cc2f4"/><path d="M115.8,438.3l1,.5h.3l.9-.5c.1,0,.1-.1,0-.2l-1-.5h-.3l-.9.5Z" style="fill:#9cc2f4"/><path d="M114.5,437.5l1,.5h.3l.9-.5c.1,0,.1-.1,0-.2l-1-.5h-.3l-.9.5C114.4,437.4,114.4,437.4,114.5,437.5Z" style="fill:#9cc2f4"/><path d="M113.2,436.7l.9.5h.3l.9-.5c.1-.1.1-.1,0-.2l-1-.5H114l-.9.5C113.1,436.6,113.1,436.7,113.2,436.7Z" style="fill:#9cc2f4"/><path d="M111.8,435.9l1,.5h.3l.9-.5c.1,0,.1-.1,0-.2l-1-.5h-.3l-.9.5C111.7,435.8,111.7,435.9,111.8,435.9Z" style="fill:#9cc2f4"/><path d="M110.4,435.1l1,.5h.3l.9-.5c.1,0,.1-.1,0-.2l-1-.5h-.3l-.9.5Z" style="fill:#9cc2f4"/><path d="M109.1,434.4l1,.5h.3l.9-.5c.1-.1.1-.1,0-.2l-1-.5H110l-.9.5C109,434.3,109,434.3,109.1,434.4Z" style="fill:#9cc2f4"/><path d="M107.8,433.6l.9.5h.3l.9-.5c.1,0,.1-.1,0-.2l-1-.5h-.3l-.9.5C107.7,433.5,107.7,433.5,107.8,433.6Z" style="fill:#9cc2f4"/><path d="M106.4,432.8l1,.5h.3l.9-.5c.1,0,.1-.1,0-.2l-.9-.5h-.3l-.9.5C106.3,432.7,106.3,432.8,106.4,432.8Z" style="fill:#9cc2f4"/><path d="M105.1,432l1,.5h.3l.9-.5c.1,0,.1-.1,0-.2l-1-.5H106l-.9.5C105,431.9,105,432,105.1,432Z" style="fill:#9cc2f4"/><path d="M102.1,430.3l2.6,1.5h.3l.9-.5c.1,0,.1-.1,0-.2l-2.6-1.5H103l-.9.5C102,430.2,102,430.3,102.1,430.3Z" style="fill:#9cc2f4"/><path d="M119.9,440.6l1.3.8h.3l.9-.5c.1,0,.1-.1,0-.2l-1.3-.8h-.3l-.9.5C119.8,440.5,119.8,440.5,119.9,440.6Z" style="fill:#9cc2f4"/><path d="M129.7,437.9h0l-21.6-12.5v-17l.2-.4h.2a1.4,1.4,0,0,1,1.5,0l19.8,11.4a1.6,1.6,0,0,1,.8,1.3v15.9C130.4,437.5,130.2,437.6,129.7,437.9Z" style="fill:#e5e5e5"/><path d="M127.8,421.5,108.1,409v-.6l.2-.4h.2a1.4,1.4,0,0,1,1.5,0l19.8,11.4a1.7,1.7,0,0,1,.6.6Z" style="fill:#e5e5e5"/><path d="M108.6,408.1l20.7,12a.8.8,0,0,1,.4.6v17.2l-21.6-12.5V408.3a.3.3,0,0,1,.3-.3C108.5,408,108.6,408,108.6,408.1Z" style="fill:#dceeff"/><path d="M108.6,408.1l20.7,12a.8.8,0,0,1,.4.6v17.2l-21.6-12.5V408.3a.3.3,0,0,1,.3-.3C108.5,408,108.6,408,108.6,408.1Z" style="fill:#f4f4f4"/><polygon points="129.7 437.9 129.7 437.3 108.1 424.8 108.1 425.4 129.7 437.9" style="fill:#dbdbdb"/><polygon points="108.7 424.5 108.7 409 109 409.1 109 424.4 108.7 424.5" style="fill:#4c64ac"/><polygon points="109 409.1 109 424.4 129.1 436 129.1 420.7 109 409.1" style="fill:#9cc2f4"/><polygon points="108.7 424.5 129.1 436.3 129.1 436 109 424.4 108.7 424.5" style="fill:#4c64ac"/><path d="M85.4,405.4c-.5,1.3.8,2.8,4.3,3.9s3.8-.3,3.8-.3a62.4,62.4,0,0,1,6.8,3.5c2.1,1.5,3,5.7,3.3,12.8s.4,20.5.1,22.6c0,0-3.9,3.9-8.9,3.5s-13.4-4.8-15.4-8.3c0-7.3.9-8.4-.3-12.6C76.4,421,75,417,76.3,410.7s2.6-5.9,4.7-5.8A34.9,34.9,0,0,1,85.4,405.4Z" style="fill:#f4f4f4"/><path d="M111.8,434.2c-4.1,1-5.1-1.5-5.6-3.7-1.3-5.2-2-9.9-3-12.8s-2.3-4-4-4.7-3.7.9-3,5.3a87.9,87.9,0,0,0,3.8,15.1c.5,1.6,1.7,4.5,3.4,5.9s5.3,1.6,10.1.4c2-.5,4.3-1.7,8.2-3.6l3.9-1.7a14.5,14.5,0,0,0,5.2-4c1.1-1.5,1.2-2.2,1-2.6s-.7-.3-1.3.3a9.7,9.7,0,0,1-3,2.7s1.3-1.3,2-2.2a13.2,13.2,0,0,0,1.6-2.5c.4-.9-.4-2.1-1-1.5s-.9,1.3-1.9,2.5a10.7,10.7,0,0,1-1.9,1.8,26.8,26.8,0,0,0,1.8-2.8,3.7,3.7,0,0,0,.6-2.5c0-.5-.7-1-1.3-.1a17.9,17.9,0,0,1-2.2,3.4c-.9,1-1.7,1.5-1.8,1.3s.6-.8.9-1.9,0-2.3-.6-2.5-.5-.1-1,1a37.2,37.2,0,0,0-1.9,3.4,6.6,6.6,0,0,1-1.7,2.9A20.7,20.7,0,0,1,111.8,434.2Z" style="fill:#ffcea9"/><path d="M97.7,412.3c2.7-.4,4.7.8,5.9,5s2.1,7.6,2.1,7.6a7.7,7.7,0,0,1-4.6,3c-3.3.8-4.5-.8-4.5-.8l-1.5-7.3C94.5,416.9,94.3,412.8,97.7,412.3Z" style="fill:#ededed"/><path d="M99,391s4.3-6.6-5-7.9c-6.8-1-11.1,3.4-11.6,8.1s2.3,9.2,4.3,11a8.2,8.2,0,0,0,5.8-.7,22.9,22.9,0,0,0,.1-3.7C92.7,397.8,89.3,390.9,99,391Z"/><polygon points="117.8 474.3 117.8 454.5 102.1 463.7 108.1 476.2 117.8 474.3" style="fill:#c4c7d6"/><polygon points="107.5 455.6 113.5 452.1 117.8 454.6 111.6 458.1 107.5 455.6" style="fill:#d6d8e5"/><path d="M31.8,345.6,5,329.9c-3-1.8-2.7-4.9.8-6.9l13.6-8c3.5-2,8.8-2.3,11.9-.5l26.8,15.7c3,1.8,2.7,4.9-.8,6.9l-13.6,8C40.1,347.2,34.8,347.4,31.8,345.6Z" style="fill:#d6d8e5;opacity:0.4000000059604645;isolation:isolate"/><path d="M65,330.2V292.3L7.8,285.8V324h0a3.5,3.5,0,0,0,2,3.1l26.8,15.7c3,1.8,8.3,1.6,11.8-.5l13.6-8c2-1.3,3-2.8,3-4.1Z" style="fill:#d6d8e5"/><path d="M64.9,296.4v-4.1H60.5L36.1,278c-3-1.8-8.4-1.5-11.9.5l-13.6,8-.7.5-2.2-1.2v4.5h0a3.5,3.5,0,0,0,2,3.1L36.6,309c3,1.8,8.3,1.5,11.8-.5l13.6-8c2-1.2,3-2.7,2.9-4.1Z" style="fill:#edf0f9"/><path d="M36.6,304.5,9.8,288.8c-3-1.8-2.7-4.9.9-6.9l13.6-8c3.5-2,8.8-2.3,11.9-.5L63,289.1c3,1.8,2.7,4.9-.9,6.9l-13.6,8C45,306,39.6,306.3,36.6,304.5Z" style="fill:#e2e5f2"/><path d="M30.6,283.1v-1.5h-.9l-.3-.2a6.6,6.6,0,0,0-5.8,0l-.5.3-.7-.2V283a1.9,1.9,0,0,0,1.2,1.7,6.6,6.6,0,0,0,5.8,0A2,2,0,0,0,30.6,283.1Z" style="fill:#4c64ac"/><ellipse cx="26.5" cy="281.6" rx="4.1" ry="2.4" style="fill:#9cc2f4"/><path d="M40.5,288.8v-1.5h-.9l-.3-.2a6.6,6.6,0,0,0-5.8,0l-.5.3-.7-.2v1.5a2.1,2.1,0,0,0,1.2,1.7,6.6,6.6,0,0,0,5.8,0A2,2,0,0,0,40.5,288.8Z" style="fill:#4c64ac"/><ellipse cx="36.4" cy="287.3" rx="4.1" ry="2.4" style="fill:#9cc2f4"/><path d="M50.3,294.9v-1.5h-.9l-.3-.2a6.6,6.6,0,0,0-5.8,0l-.5.3-.7-.2v1.5a2.1,2.1,0,0,0,1.2,1.7,6.6,6.6,0,0,0,5.8,0A1.8,1.8,0,0,0,50.3,294.9Z" style="fill:#4c64ac"/><ellipse cx="46.3" cy="293.3" rx="4.1" ry="2.4" style="fill:#9cc2f4"/></svg>