<svg xmlns="http://www.w3.org/2000/svg" viewBox="0 0 800.3 550.3"><title>hero.illustration</title><rect x="0.1" y="0.1" width="800" height="550" rx="5" ry="5" style="fill:#fff;stroke:#b3b3b3;stroke-miterlimit:10;stroke-width:0.25px"/><line x1="0.1" y1="61.6" x2="799.9" y2="61.6" style="fill:none;stroke:#dee1e6;stroke-miterlimit:10;stroke-width:0.5px"/><rect x="61.6" y="36.1" width="672.6" height="22" rx="11" ry="11" style="fill:#feffff;stroke:#ccc;stroke-miterlimit:10;stroke-width:0.25px"/><ellipse cx="786" cy="42.1" rx="1.5" ry="1.5" style="fill:#64686d"/><ellipse cx="786" cy="47.1" rx="1.5" ry="1.5" style="fill:#64686d"/><ellipse cx="786" cy="52.1" rx="1.5" ry="1.5" style="fill:#64686d"/><ellipse cx="757.5" cy="47.1" rx="7.4" ry="7.5" style="fill:#64686d"/><path d="M35.1,55.1,38.3,52a.8.8,0,0,0,.2-.5h0a.8.8,0,0,0-.2-.5l-3.2-3.1a.7.7,0,0,0-.9,0,.8.8,0,0,0,0,1.1l1.9,1.8H31.2a.7.7,0,1,0,0,1.4H36L34.2,54a.8.8,0,0,0,0,1.1.7.7,0,0,0,.9,0Z" transform="translate(-4.9 -4.9)" style="fill:#ccc"/><path d="M19.8,50.8H14.9L16.8,49a.8.8,0,0,0,0-1.1.9.9,0,0,0-1,0L12.7,51a.8.8,0,0,0-.2.5h0a.8.8,0,0,0,.2.5l3.1,3.1a.9.9,0,0,0,1,0,.8.8,0,0,0,0-1.1l-1.9-1.8h4.9a.7.7,0,0,0,0-1.4Z" transform="translate(-4.9 -4.9)" style="fill:#64686d"/><path d="M724.4,54.9l3.1,1.9-.8-3.6,2.7-2.3-3.6-.3-1.4-3.3L723,50.6l-3.5.3,2.7,2.3-.8,3.6Z" transform="translate(-4.9 -4.9)" style="fill:#64686d"/><path d="M52.5,54.8a3,3,0,0,1-3-3,2.9,2.9,0,0,1,3-3,2.7,2.7,0,0,1,2.1.9L53,51.3h3.5V47.8l-1.2,1.1a3.9,3.9,0,0,0-2.8-1.1,4,4,0,1,0,3.8,5.1h-1A3,3,0,0,1,52.5,54.8Z" transform="translate(-4.9 -4.9)" style="fill:#64686d"/><path d="M80.5,50h-.4v-.9a2.2,2.2,0,1,0-4.4,0V50h-.4a.9.9,0,0,0-.9.8v4.4a.9.9,0,0,0,.9.9h5.2a.9.9,0,0,0,.9-.9V50.8A.9.9,0,0,0,80.5,50Zm-2.6,4a.9.9,0,1,1,.9-.9A.9.9,0,0,1,77.9,54Zm1.3-4H76.5v-.9a1.4,1.4,0,0,1,1.4-1.4,1.4,1.4,0,0,1,1.3,1.4Z" transform="translate(-4.9 -4.9)" style="fill:#64686d"/><path d="M5.2.1H795a5,5,0,0,1,5,5v25a0,0,0,0,1,0,0H.2a0,0,0,0,1,0,0V5.1a5,5,0,0,1,5-5Z" style="fill:#dee1e6"/><line x1="723.5" y1="15.1" x2="731.5" y2="15.1" style="fill:none;stroke:#000;stroke-linecap:round;stroke-miterlimit:10;stroke-width:0.75px"/><rect x="751.5" y="11.1" width="8" height="8" rx="1" ry="1" style="fill:none;stroke:#000;stroke-miterlimit:10;stroke-width:0.75px"/><line x1="779.5" y1="19.1" x2="787.5" y2="11.1" style="fill:none;stroke:#000;stroke-linecap:round;stroke-miterlimit:10;stroke-width:0.75px"/><line x1="779.5" y1="11.1" x2="787.5" y2="19.1" style="fill:none;stroke:#000;stroke-linecap:round;stroke-miterlimit:10;stroke-width:0.75px"/><path d="M12,10.1H122a5,5,0,0,1,5,5v15a0,0,0,0,1,0,0H7a0,0,0,0,1,0,0v-15A5,5,0,0,1,12,10.1Z" style="fill:#fff"/><text x="-4.9" y="-4.9"></text></svg>