<svg xmlns="http://www.w3.org/2000/svg" viewBox="0 0 800.3 550.3" style="">
  <path width="800" height="550" fill="#fff" stroke="#b3b3b3" stroke-miterlimit="10" stroke-width=".25" d="M 5.1,0.1 L 795.1,0.1 A 5,5,0,0,1,800.1,5.1 L 800.1,545.1 A 5,5,0,0,1,795.1,550.1 L 5.1,550.1 A 5,5,0,0,1,0.1,545.1 L 0.1,5.1 A 5,5,0,0,1,5.1,0.1" class="MbXvaooh_0"></path>
  <path width="177.7" height="172" fill="none" stroke="#e6e6e6" stroke-miterlimit="10" stroke-width="5" d="M 574.3,224.4 L 748,224.4 A 2,2,0,0,1,750,226.4 L 750,394.4 A 2,2,0,0,1,748,396.4 L 574.3,396.4 A 2,2,0,0,1,572.3,394.4 L 572.3,226.4 A 2,2,0,0,1,574.3,224.4" class="MbXvaooh_1"></path>
  <path fill="#b3b3b3" stroke="#e6e6e6" stroke-linecap="round" stroke-miterlimit="10" stroke-width="5" d="M311.9 493.3h111.7M311.9 473.7h111.7M311.9 454.1h111.7" class="MbXvaooh_2"></path>
  <path fill="#b3b3b3" stroke="#e6e6e6" stroke-linecap="round" stroke-miterlimit="10" stroke-width="10" d="M313.9 430.1h129" class="MbXvaooh_3"></path>
  <path width="177.7" height="172" fill="none" stroke="#e6e6e6" stroke-miterlimit="10" stroke-width="5" d="M 313.9,224.4 L 487.59999999999997,224.4 A 2,2,0,0,1,489.59999999999997,226.4 L 489.59999999999997,394.4 A 2,2,0,0,1,487.59999999999997,396.4 L 313.9,396.4 A 2,2,0,0,1,311.9,394.4 L 311.9,226.4 A 2,2,0,0,1,313.9,224.4" class="MbXvaooh_4"></path>
  <path fill="#b3b3b3" stroke="#e6e6e6" stroke-linecap="round" stroke-miterlimit="10" stroke-width="5" d="M51.6 493.3h111.6M51.6 473.7h111.6M51.6 454.1h111.6" class="MbXvaooh_5"></path>
  <path fill="#b3b3b3" stroke="#e6e6e6" stroke-linecap="round" stroke-miterlimit="10" stroke-width="10" d="M53.6 430.1h129" class="MbXvaooh_6"></path>
  <path width="177.7" height="172" fill="none" stroke="#e6e6e6" stroke-miterlimit="10" stroke-width="5" d="M 53.6,224.4 L 227.29999999999998,224.4 A 2,2,0,0,1,229.29999999999998,226.4 L 229.29999999999998,394.4 A 2,2,0,0,1,227.29999999999998,396.4 L 53.6,396.4 A 2,2,0,0,1,51.6,394.4 L 51.6,226.4 A 2,2,0,0,1,53.6,224.4" class="MbXvaooh_7"></path>
  <path fill="#e6e6e6" stroke="#e6e6e6" stroke-linecap="round" stroke-miterlimit="10" stroke-width="5" d="M700 132.1h50M611 132.1h50M522 132.1h50M433 132.1h50" class="MbXvaooh_8"></path>
  <path width="70" height="60" fill="none" stroke="#e6e6e6" stroke-miterlimit="10" stroke-width="3" d="M 53.6,102.1 L 119.6,102.1 A 2,2,0,0,1,121.6,104.1 L 121.6,160.1 A 2,2,0,0,1,119.6,162.1 L 53.6,162.1 A 2,2,0,0,1,51.6,160.1 L 51.6,104.1 A 2,2,0,0,1,53.6,102.1" class="MbXvaooh_9"></path>
  <path fill="#b3b3b3" d="M.2 61.5H800v.25H.2z" class="MbXvaooh_10"></path>
  <path fill="#64686d" d="M784.5,42.1A1.5,1.5 0,1,1 787.5,42.1A1.5,1.5 0,1,1 784.5,42.1" class="MbXvaooh_11"></path>
  <path fill="#64686d" d="M784.5,47.1A1.5,1.5 0,1,1 787.5,47.1A1.5,1.5 0,1,1 784.5,47.1" class="MbXvaooh_12"></path>
  <path fill="#64686d" d="M784.5,52.1A1.5,1.5 0,1,1 787.5,52.1A1.5,1.5 0,1,1 784.5,52.1" class="MbXvaooh_13"></path>
  <path fill="#64686d" d="M750,47.1A7.5,7.5 0,1,1 765,47.1A7.5,7.5 0,1,1 750,47.1" class="MbXvaooh_14"></path>
  <path width="672.6" height="22" fill="#f2f2f2" d="M 72.6,36.1 L 723.2,36.1 A 11,11,0,0,1,734.2,47.1 L 734.2,47.1 A 11,11,0,0,1,723.2,58.1 L 72.6,58.1 A 11,11,0,0,1,61.6,47.1 L 61.6,47.1 A 11,11,0,0,1,72.6,36.1" class="MbXvaooh_15"></path>
  <path d="M719.5 50l3.1 1.9-.8-3.6 2.7-2.3-3.6-.3-1.4-3.3-1.4 3.3-3.5.3 2.7 2.3-.8 3.6zM75.6 45.1h-.4v-.9a2.2 2.2 0 10-4.4 0v.9h-.4a.9.9 0 00-.9.8v4.4a.9.9 0 00.9.9h5.2a.9.9 0 00.9-.9v-4.4a.9.9 0 00-.9-.8zm-2.6 4a.9.9 0 11.9-.9.9.9 0 01-.9.9zm1.3-4h-2.7v-.9a1.4 1.4 0 011.4-1.4 1.4 1.4 0 011.3 1.4z" fill="#64686d" class="MbXvaooh_16"></path>
  <text transform="translate(86 51)" font-size="12" font-family="Roboto-Regular,Roboto">
    https:<tspan x="30.3" y="0" letter-spacing="-.109em">/</tspan><tspan x="33.9" y="0">/ww</tspan><tspan x="56.9" y="0" letter-spacing="-.061em">w</tspan><tspan x="65.2" y="0">.unde</tspan><tspan x="94.7" y="0" letter-spacing="-.009em">r</tspan><tspan x="98.6" y="0">contruction.d</tspan><tspan x="169.5" y="0" letter-spacing="-.006em">e</tspan><tspan x="175.8" y="0">v</tspan>
  </text>
  <path d="M47.6 49.9a3 3 0 01-3-3 2.9 2.9 0 013-3 2.7 2.7 0 012.1.9l-1.6 1.6h3.5v-3.5L50.4 44a3.9 3.9 0 00-2.8-1.1 4 4 0 103.8 5.1h-1a3 3 0 01-2.8 1.9z" fill="#64686d" class="MbXvaooh_17"></path>
  <path d="M30.2 50.2l3.2-3.1a.8.8 0 00.2-.5.8.8 0 00-.2-.5L30.2 43a.7.7 0 00-.9 0 .8.8 0 000 1.1l1.9 1.8h-4.9a.7.7 0 100 1.4h4.8l-1.8 1.8a.8.8 0 000 1.1.7.7 0 00.9 0z" fill="#b3b3b3" class="MbXvaooh_18"></path>
  <path d="M14.9 45.9H10l1.9-1.8a.8.8 0 000-1.1.9.9 0 00-1 0l-3.1 3.1a.8.8 0 00-.2.5.8.8 0 00.2.5l3.1 3.1a.9.9 0 001 0 .8.8 0 000-1.1L10 47.3h4.9a.7.7 0 000-1.4z" fill="#64686d" class="MbXvaooh_19"></path>
  <path d="M5.2.2H795a5 5 0 015 5v25H.2v-25a5 5 0 015-5z" fill="#ff6e4a" class="MbXvaooh_20"></path>
  <path d="M758.6 12.5v6.2h-6.2v-6.2h6.2m0-.9h-6.2a.9.9 0 00-.9.9v6.2a.9.9 0 00.9.9h6.2a.9.9 0 00.9-.9v-6.2a.9.9 0 00-.9-.9zM787.5 12.4l-.8-.8-3.2 3.2-3.2-3.2-.8.8 3.2 3.2-3.2 3.2.8.8 3.2-3.2 3.2 3.2.8-.8-3.2-3.2zM723.5 15.1h8v1.1h-8z" class="MbXvaooh_21"></path>
  <path d="M11.7 10.1h120a5 5 0 015 5v16.2H6.7V15.1a5 5 0 015-5z" fill="#fff" class="MbXvaooh_22"></path>
  <path d="M130.4 18.6l-.5-.5-2 2-2-2-.5.5 2 2-2 2 .5.5 2-2 2 2 .5-.5-2-2z" class="MbXvaooh_23"></path>
  <text transform="translate(15.6 22.6)" font-size="7" font-family="Roboto-Regular,Roboto">
    Re<tspan x="8" y="0" letter-spacing="-.01em">x</tspan><tspan x="11.4" y="0">design - P</tspan><tspan x="42" y="0" letter-spacing="-.01em">r</tspan><tspan x="44.3" y="0">o</tspan><tspan x="48.3" y="0" letter-spacing="-.012em">f</tspan><tspan x="50.6" y="0">essional </tspan><tspan x="78.3" y="0" letter-spacing="-.015em">W</tspan><tspan x="84.5" y="0">eb D</tspan><tspan x="98.4" y="0" letter-spacing="-.006em">e</tspan><tspan x="102.1" y="0">v</tspan>
  </text>
  <path width="333.9" height="220" fill="#282c34" stroke="#1a1a1a" stroke-miterlimit="10" d="M 457.9,317.6 L 781.8,317.6 A 5,5,0,0,1,786.8,322.6 L 786.8,532.6 A 5,5,0,0,1,781.8,537.6 L 457.9,537.6 A 5,5,0,0,1,452.9,532.6 L 452.9,322.6 A 5,5,0,0,1,457.9,317.6" class="MbXvaooh_24"></path>
  <path d="M745.9 329.2v6.2h-6.2v-6.2h6.2m0-.9h-6.2a.9.9 0 00-.9.9v6.2a.9.9 0 00.9.9h6.2a.9.9 0 00.9-.9v-6.2a.9.9 0 00-.9-.9zM774.8 329.1l-.8-.8-3.2 3.2-3.2-3.2-.8.8 3.2 3.2-3.2 3.2.8.8 3.2-3.2 3.2 3.2.8-.8-3.2-3.2zM710.8 331.8h8v1h-8z" fill="#fff" class="MbXvaooh_25"></path>
<style data-made-with="vivus-instant">.MbXvaooh_0{stroke-dasharray:2692 2694;stroke-dashoffset:2693;animation:MbXvaooh_draw 3000ms ease 0ms forwards;}.MbXvaooh_1{stroke-dasharray:696 698;stroke-dashoffset:697;animation:MbXvaooh_draw 3000ms ease 0ms forwards;}.MbXvaooh_2{stroke-dasharray:336 338;stroke-dashoffset:337;animation:MbXvaooh_draw 3000ms ease 0ms forwards;}.MbXvaooh_3{stroke-dasharray:129 131;stroke-dashoffset:130;animation:MbXvaooh_draw 3000ms ease 0ms forwards;}.MbXvaooh_4{stroke-dasharray:696 698;stroke-dashoffset:697;animation:MbXvaooh_draw 3000ms ease 0ms forwards;}.MbXvaooh_5{stroke-dasharray:335 337;stroke-dashoffset:336;animation:MbXvaooh_draw 3000ms ease 0ms forwards;}.MbXvaooh_6{stroke-dasharray:129 131;stroke-dashoffset:130;animation:MbXvaooh_draw 3000ms ease 0ms forwards;}.MbXvaooh_7{stroke-dasharray:696 698;stroke-dashoffset:697;animation:MbXvaooh_draw 3000ms ease 0ms forwards;}.MbXvaooh_8{stroke-dasharray:200 202;stroke-dashoffset:201;animation:MbXvaooh_draw 3000ms ease 0ms forwards;}.MbXvaooh_9{stroke-dasharray:257 259;stroke-dashoffset:258;animation:MbXvaooh_draw 3000ms ease 0ms forwards;}.MbXvaooh_10{stroke-dasharray:1601 1603;stroke-dashoffset:1602;animation:MbXvaooh_draw 3000ms ease 0ms forwards;}.MbXvaooh_11{stroke-dasharray:10 12;stroke-dashoffset:11;animation:MbXvaooh_draw 3000ms ease 0ms forwards;}.MbXvaooh_12{stroke-dasharray:10 12;stroke-dashoffset:11;animation:MbXvaooh_draw 3000ms ease 0ms forwards;}.MbXvaooh_13{stroke-dasharray:10 12;stroke-dashoffset:11;animation:MbXvaooh_draw 3000ms ease 0ms forwards;}.MbXvaooh_14{stroke-dasharray:48 50;stroke-dashoffset:49;animation:MbXvaooh_draw 3000ms ease 0ms forwards;}.MbXvaooh_15{stroke-dasharray:1371 1373;stroke-dashoffset:1372;animation:MbXvaooh_draw 3000ms ease 0ms forwards;}.MbXvaooh_16{stroke-dasharray:80 82;stroke-dashoffset:81;animation:MbXvaooh_draw 3000ms ease 0ms forwards;}.MbXvaooh_17{stroke-dasharray:49 51;stroke-dashoffset:50;animation:MbXvaooh_draw 3000ms ease 0ms forwards;}.MbXvaooh_18{stroke-dasharray:32 34;stroke-dashoffset:33;animation:MbXvaooh_draw 3000ms ease 0ms forwards;}.MbXvaooh_19{stroke-dasharray:32 34;stroke-dashoffset:33;animation:MbXvaooh_draw 3000ms ease 0ms forwards;}.MbXvaooh_20{stroke-dasharray:1656 1658;stroke-dashoffset:1657;animation:MbXvaooh_draw 3000ms ease 0ms forwards;}.MbXvaooh_21{stroke-dasharray:115 117;stroke-dashoffset:116;animation:MbXvaooh_draw 3000ms ease 0ms forwards;}.MbXvaooh_22{stroke-dasharray:299 301;stroke-dashoffset:300;animation:MbXvaooh_draw 3000ms ease 0ms forwards;}.MbXvaooh_23{stroke-dasharray:26 28;stroke-dashoffset:27;animation:MbXvaooh_draw 3000ms ease 0ms forwards;}.MbXvaooh_24{stroke-dasharray:1100 1102;stroke-dashoffset:1101;animation:MbXvaooh_draw 3000ms ease 0ms forwards;}.MbXvaooh_25{stroke-dasharray:114 116;stroke-dashoffset:115;animation:MbXvaooh_draw 3000ms ease 0ms forwards;}@keyframes MbXvaooh_draw{100%{stroke-dashoffset:0;}}@keyframes MbXvaooh_fade{0%{stroke-opacity:1;}94.44444444444444%{stroke-opacity:1;}100%{stroke-opacity:0;}}</style></svg>
