<svg width="150" height="75" viewBox="0 0 150 75" fill="none" xmlns="http://www.w3.org/2000/svg">
<path d="M56.325 27.2465C55.4782 28.3218 54.3301 29.1247 53.025 29.5543L55.725 34.4676H51.9L49.425 30.0009H46.35L45.45 34.4676H41.775L44.925 18.4621H51.3C53.25 18.4621 54.825 18.8343 55.875 19.7276C56.3986 20.1777 56.8124 20.7398 57.0852 21.3717C57.358 22.0036 57.4828 22.6887 57.45 23.3754C57.4889 24.7504 57.0957 26.1033 56.325 27.2465ZM52.8 26.2043C53.1332 25.8902 53.3931 25.5075 53.5616 25.0831C53.73 24.6587 53.8028 24.2029 53.775 23.7476C53.8056 23.4226 53.7529 23.0952 53.6217 22.7958C53.4906 22.4965 53.2853 22.2349 53.025 22.0354C52.383 21.6107 51.6206 21.4019 50.85 21.4399H48L46.875 27.0232H50.025C51.0171 27.0727 51.9963 26.7837 52.8 26.2043Z" fill="black"/>
<path d="M64.425 21.4399L63.75 24.8643H71.1L70.5 27.7676H63.225L62.475 31.4898H71.025L70.425 34.4676H58.275L61.425 18.4621H73.275L72.675 21.4399H64.425Z" fill="black"/>
<path d="M82.875 26.3532L87.225 34.4676H83.325L80.475 29.0331L75.75 34.4676H71.4L78.9 26.1298L74.85 18.4621H78.75L81.375 23.5987L85.95 18.4621H90.075L82.875 26.3532Z" fill="black"/>
<path d="M40.65 38.7853H46.275C47.5001 38.7654 48.7111 39.0467 49.8 39.6042C50.7615 40.1381 51.5439 40.9406 52.05 41.912C52.6038 43.0223 52.8864 44.2464 52.875 45.4853C52.8977 47.1802 52.539 48.8588 51.825 50.3986C51.1613 51.7295 50.1515 52.8603 48.9 53.6741C47.5731 54.4898 46.0353 54.9037 44.475 54.8652H37.95L40.65 38.7853ZM44.625 51.813C45.5895 51.8294 46.5345 51.5428 47.325 50.9941C48.0979 50.4357 48.7169 49.6933 49.125 48.8353C49.5329 47.8431 49.7369 46.7801 49.725 45.7086C49.7596 45.1965 49.6911 44.6826 49.5238 44.197C49.3564 43.7113 49.0933 43.2636 48.75 42.8797C48.3718 42.5221 47.9238 42.2451 47.4337 42.0658C46.9435 41.8866 46.4216 41.8089 45.9 41.8375H43.275L41.55 51.813H44.625Z" fill="black"/>
<path d="M59.025 41.7631L58.5 45.2619H64.725L64.2 48.1652H57.975L57.375 51.8874H64.65L64.2 54.8652H53.775L56.475 38.7853H66.6L66.075 41.7631H59.025Z" fill="black"/>
<path d="M68.25 54.6419C67.4007 54.3364 66.6133 53.8826 65.925 53.3019L67.2 50.473C67.814 51.0216 68.5264 51.4509 69.3 51.7386C70.0521 51.9765 70.8357 52.102 71.625 52.1108C72.3276 52.1389 73.0255 51.985 73.65 51.6641C73.8863 51.5116 74.0793 51.3015 74.2106 51.0539C74.3419 50.8063 74.4071 50.5294 74.4 50.2497C74.4019 50.0388 74.3474 49.8312 74.2419 49.6481C74.1365 49.465 73.984 49.3129 73.8 49.2075C73.2152 48.8515 72.5845 48.576 71.925 48.3886L69.75 47.4953C69.2057 47.1572 68.7238 46.7292 68.325 46.2297C67.907 45.5332 67.6988 44.7323 67.725 43.922C67.7342 42.9318 67.992 41.9595 68.475 41.0931C69.01 40.2643 69.7618 39.5953 70.65 39.1575C71.6762 38.7543 72.7713 38.552 73.875 38.562C74.7349 38.5418 75.5933 38.642 76.425 38.8598C77.1859 39.0701 77.8989 39.4239 78.525 39.902L77.325 42.7309C76.8458 42.3192 76.2831 42.0146 75.675 41.8375C75.0467 41.6294 74.3873 41.5287 73.725 41.5397C72.9873 41.4905 72.2526 41.6728 71.625 42.0609C71.3887 42.2134 71.1957 42.4235 71.0644 42.6711C70.9331 42.9187 70.8679 43.1956 70.875 43.4753C70.8612 43.6366 70.8807 43.799 70.9323 43.9526C70.9839 44.1062 71.0665 44.2478 71.175 44.3686L72 44.9642L73.425 45.4853C74.151 45.6872 74.8546 45.9616 75.525 46.3042C76.0677 46.6137 76.5503 47.0171 76.95 47.4953C77.3337 48.1485 77.5162 48.8991 77.475 49.6541C77.5125 50.6735 77.252 51.6818 76.725 52.5575C76.2047 53.3805 75.4468 54.029 74.55 54.4186C73.5408 54.8838 72.4375 55.113 71.325 55.0886C70.2834 55.0919 69.247 54.9413 68.25 54.6419Z" fill="black"/>
<path d="M81.525 38.7853H84.675L81.975 54.8652H78.825L81.525 38.7853Z" fill="black"/>
<path d="M95.625 46.6019H98.475L97.35 53.153C96.6571 53.802 95.8414 54.3081 94.95 54.6419C94.0558 54.9404 93.1184 55.0913 92.175 55.0885C90.9701 55.1451 89.7738 54.8611 88.725 54.2697C87.7165 53.7043 86.9055 52.8473 86.4 51.813C85.8453 50.6765 85.5629 49.4281 85.575 48.1653C85.5523 46.4703 85.911 44.7918 86.625 43.252C87.2645 41.8231 88.3063 40.6081 89.625 39.7531C90.9232 38.9352 92.4379 38.5204 93.975 38.562C95.1358 38.538 96.2878 38.7667 97.35 39.232C98.2698 39.7208 99.0453 40.4392 99.6 41.3164L97.35 43.4753C96.9649 42.9162 96.4506 42.4567 95.85 42.1353C95.249 41.8238 94.5777 41.67 93.9 41.6886C92.9141 41.6855 91.949 41.9703 91.125 42.5075C90.3349 43.0791 89.7133 43.8502 89.325 44.7408C88.9258 45.7614 88.7223 46.8471 88.725 47.9419C88.6516 48.9994 89.0021 50.0429 89.7 50.8452C90.0775 51.2298 90.5345 51.5287 91.0393 51.7214C91.5442 51.9141 92.0852 51.9962 92.625 51.9619C93.3892 51.9499 94.1377 51.745 94.8 51.3663L95.625 46.6019Z" fill="black"/>
<path d="M114.9 38.7853L112.2 54.8652H109.65L104.7 44.8153L102.975 54.8652H99.9L102.6 38.7853H105.15L110.175 48.8352L111.825 38.7853H114.9Z" fill="black"/>
<path d="M120 19.7277L133.875 33.6487C134.604 34.3981 135.011 35.3989 135.011 36.4403C135.011 37.4818 134.604 38.4826 133.875 39.232L120 53.153" stroke="#0029FF" stroke-width="8.08" stroke-miterlimit="10" stroke-linecap="round"/>
<path d="M29.2608 19.3554L15.3858 33.2765C14.6572 34.0258 14.25 35.0267 14.25 36.0681C14.25 37.1096 14.6572 38.1104 15.3858 38.8598L29.2608 52.7808" stroke="#0029FF" stroke-width="8.08" stroke-miterlimit="10" stroke-linecap="round"/>
</svg>
